<svg version="1.0" xmlns="http://www.w3.org/2000/svg"
  width="1000" height="1000" viewBox="0 0 1000 1000"
  preserveAspectRatio="xMidYMid meet">
<g transform="translate(0,1000.00) scale(0.10,-0.10)"
  fill="#FFFFFF" stroke="none">
<path d="M3560 9119 c-36 -17 -148 -67 -250 -111 -102 -44 -259 -113 -351
-154 -91 -40 -178 -78 -193 -84 -21 -8 -26 -15 -22 -28 4 -9 66 -153 139 -320
123 -283 133 -302 155 -297 12 3 124 51 250 106 125 56 288 128 362 159 199
86 270 118 270 125 0 3 -42 101 -93 218 -51 117 -113 258 -137 315 -25 56 -49
102 -55 102 -5 -1 -39 -15 -75 -31z"/>
<path d="M4285 8654 c-55 -24 -154 -68 -220 -96 -66 -28 -121 -52 -123 -53 -2
-2 107 -251 124 -283 1 -2 32 11 69 27 37 17 73 31 80 31 6 0 37 -60 69 -132
112 -255 309 -704 368 -838 33 -74 78 -176 99 -225 l39 -90 203 -1 c450 -2
832 -109 1217 -340 198 -119 424 -313 575 -495 241 -288 424 -670 495 -1031
32 -166 42 -272 41 -463 0 -376 -72 -686 -236 -1021 -308 -627 -863 -1073
-1545 -1243 -140 -34 -275 -51 -465 -58 -298 -10 -545 26 -820 118 -628 212
-1125 666 -1395 1277 -140 317 -197 621 -187 992 10 372 72 629 231 955 130
266 286 479 503 684 l116 110 -63 143 c-35 79 -84 193 -110 253 -25 61 -88
202 -138 315 -50 113 -124 282 -165 375 l-75 170 83 38 82 39 -44 101 c-25 56
-53 121 -63 144 l-18 41 -223 -100 c-123 -55 -225 -100 -226 -101 -1 -1 29
-72 67 -157 37 -85 118 -270 180 -410 61 -140 159 -362 217 -493 l105 -238
-79 -86 c-361 -395 -583 -826 -683 -1323 -43 -213 -53 -340 -47 -588 5 -248
21 -367 77 -588 123 -480 357 -893 704 -1240 306 -305 664 -523 1081 -657 931
-300 1968 -57 2674 628 700 679 977 1686 721 2618 -105 379 -260 686 -500 986
-463 581 -1198 955 -1938 989 l-153 7 -81 180 c-44 99 -116 263 -160 365 -234
539 -347 793 -356 801 -4 4 -52 -13 -107 -37z"/>
<path d="M3995 8173 c-33 -14 -176 -76 -318 -139 -142 -63 -280 -123 -308
-134 -96 -38 -209 -93 -209 -101 0 -5 32 -82 71 -171 39 -90 94 -215 121 -278
28 -63 54 -119 59 -124 5 -5 65 16 146 51 76 34 228 100 338 148 110 48 250
110 312 137 l112 50 -26 57 c-62 138 -139 314 -179 411 -25 58 -48 108 -52
112 -4 3 -34 -5 -67 -19z"/>
<path d="M5505 6124 c-16 -2 -73 -9 -125 -15 -657 -75 -1294 -448 -1697 -996
-36 -48 -66 -89 -68 -91 -2 -2 -36 4 -77 12 -40 8 -117 18 -169 22 -96 7 -276
-2 -296 -14 -33 -21 -44 -456 -17 -674 29 -243 139 -531 293 -768 204 -315
459 -539 802 -703 305 -147 555 -197 919 -184 175 7 201 9 317 28 153 24 449
138 608 234 354 214 604 489 778 860 126 266 174 470 181 775 6 251 -18 438
-80 634 -83 263 -247 555 -408 727 l-53 57 -129 30 c-200 48 -320 63 -544 67
-113 2 -218 2 -235 -1z m179 -592 c83 -39 149 -105 189 -190 29 -61 32 -76 32
-162 0 -86 -3 -101 -32 -162 -40 -85 -106 -151 -191 -191 -61 -29 -76 -32
-162 -32 -86 0 -101 3 -162 32 -85 40 -151 106 -191 191 -29 61 -32 76 -32
162 0 86 3 101 32 162 51 108 149 190 260 218 71 18 186 5 257 -28z m-748
-1180 c50 -25 90 -66 117 -117 30 -56 30 -164 0 -220 -49 -94 -124 -139 -228
-139 -288 0 -350 389 -78 490 49 19 138 12 189 -14z"/>
<path d="M8037 4450 c-3 -19 -15 -100 -27 -180 -26 -172 -125 -568 -173 -695
-112 -292 -299 -607 -518 -871 -92 -110 -276 -292 -389 -384 -191 -155 -457
-324 -636 -406 -250 -114 -601 -215 -929 -268 -172 -28 -447 -33 -640 -11
-308 34 -742 150 -1009 270 -106 47 -299 158 -420 242 -415 286 -709 604 -953
1031 -142 249 -241 516 -316 851 l-24 105 -22 -82 c-12 -45 -27 -120 -33 -167
-13 -97 7 -84 -165 -104 -487 -58 -938 -383 -1163 -838 -59 -121 -102 -245
-131 -383 -31 -143 -33 -426 -5 -575 117 -627 577 -1099 1206 -1237 l105 -23
3205 0 3205 0 105 23 c629 138 1089 610 1206 1237 28 147 25 432 -5 572 -63
297 -194 550 -391 757 -115 121 -212 199 -335 271 -162 96 -332 158 -510 188
l-79 13 -18 140 c-19 145 -70 370 -111 489 -24 69 -25 69 -30 35z"/>
</g>
</svg>
